<?xml version="1.0" encoding="UTF-8"?>
<svg width="1024" height="1024" viewBox="0 0 1024 1024" xmlns="http://www.w3.org/2000/svg">
  <defs>
    <linearGradient id="grad" x1="0%" y1="0%" x2="100%" y2="100%">
      <stop offset="0%" style="stop-color:#5b8def;stop-opacity:1"/>
      <stop offset="100%" style="stop-color:#2a5bd7;stop-opacity:1"/>
    </linearGradient>
    <linearGradient id="grad2" x1="0%" y1="0%" x2="0%" y2="100%">
      <stop offset="0%" style="stop-color:#ffffff;stop-opacity:0.95"/>
      <stop offset="100%" style="stop-color:#e8f0ff;stop-opacity:0.8"/>
    </linearGradient>
  </defs>
  <rect x="64" y="64" width="896" height="896" rx="180" fill="url(#grad)"/>
  <rect x="160" y="160" width="704" height="704" rx="140" fill="url(#grad2)"/>
  <path d="M512 180c-26 0-48 22-48 48v216c0 18 14 32 32 32h32c18 0 32-14 32-32V228c0-26-22-48-48-48z" fill="#2a5bd7"/>
  <path d="M352 408c-26 0-48 22-48 48v120c0 18 14 32 32 32h32c18 0 32-14 32-32V456c0-26-22-48-48-48z" fill="#5b8def"/>
  <path d="M672 408c-26 0-48 22-48 48v120c0 18 14 32 32 32h32c18 0 32-14 32-32V456c0-26-22-48-48-48z" fill="#5b8def"/>
  <circle cx="512" cy="652" r="182" fill="#2a5bd7" opacity="0.14"/>
  <circle cx="512" cy="652" r="132" fill="#2a5bd7" opacity="0.18"/>
  <circle cx="512" cy="652" r="96" fill="#5b8def"/>
  <rect x="460" y="596" width="104" height="24" rx="12" fill="#ffffff"/>
  <path d="M492 632h40c18 0 32 14 32 32v16h-104v-16c0-18 14-32 32-32z" fill="#ffffff"/>
</svg>
