<?xml version="1.0" encoding="UTF-8"?>
<svg version="1.1" viewBox="0 0 951 951" width="951" height="951" xmlns="http://www.w3.org/2000/svg">
<path transform="translate(452)" d="m0 0h47l34 3 32 5 27 6 25 7 24 8 29 12 29 14 21 12 19 12 17 12 13 10 11 9 14 12 16 15 13 13 7 8 9 10 11 14 13 17 16 24 13 22 15 29 13 31 8 23 7 23 7 29 5 30 3 28 1 15v45l-3 35-5 32-6 27-7 25-8 24-12 29-14 29-12 21-12 19-12 17-10 13-9 11-12 14-15 16-13 13-8 7-10 9-14 11-17 13-24 16-22 13-29 15-31 13-23 8-23 7-29 7-30 5-28 3-15 1h-45l-35-3-32-5-27-6-25-7-24-8-29-12-29-14-21-12-19-12-17-12-13-10-11-9-14-12-16-15-13-13-7-8-9-10-11-14-13-17-16-24-13-22-15-29-13-31-8-23-7-23-7-29-5-30-3-28-1-14v-47l3-34 5-32 6-27 7-25 8-24 12-29 14-29 12-21 12-19 12-17 10-13 9-11 12-14 15-16 13-13 8-7 10-9 14-11 17-13 24-16 22-13 29-15 31-13 23-8 23-7 29-7 30-5 28-3z" fill="#100145"/>
<path transform="translate(506,106)" d="m0 0h34l33 4 23 5 22 7 18 8 15 8 17 12 14 12 11 11 9 11 9 13 12 20 14 24 17 32 16 32 12 27 13 32 8 26 6 31 1 9v40l-3 17-4 15-6 15-8 15-9 12-9 10-14 11-16 9-15 5-15 3h-30l-15-3-16-6-11-7-10-9-9-10-7-11-7-15-5-17-2-13v-27l3-8 4-5 6-3h10l8 4 4 5 2 11 1 21 3 14 5 12 6 10 6 7 11 7 15 5 8 1h11l16-3 15-6 11-8 10-11 9-16 4-10 4-16 2-21v-10l-2-21-5-25-12-36-11-25-9-20-15-31-20-36-16-27-8-12-11-14-12-12-13-10-15-9-22-10-25-7-24-4-10-1h-41l-21 2-26 5-21 6-21 8-17 9-14 10-11 9-8 8-11 16-9 16-10 24-9 17-8 11-12 13-12 10-19 12-18 10-27 14-5 1v2l5 1 11 6 3 4 1 7-4 13-7 13-9 12-10 9-10 5-9 2 4 28 5 19 8 16 11 12 8 7 18 10 20 7 16 4 22 3h29l18-1-2 5-6 10-2 7-1 14-9 1-27-1-27-4-21-5-24-8-17-9-14-10-12-11-9-12-10-19-7-22-3-16-3-30-4-13-5-17-3-18 1-13 4-8 8-7 16-8 27-12 34-17 23-13 14-10 11-10 7-10 7-15 10-26 11-20 10-14 9-10 5-6 8-7 14-11 21-13 24-11 27-9 29-6 25-3z" fill="#FEFEFD"/>
<path transform="translate(562,540)" d="m0 0 5 4 11 14 9 10 9 11 70 85 11 13 10 13 11 13 12 14 3 3 10-9 14-14 13-18 10-17 8-19 5-17 3-15 1-2 16 2 20 4-1 10-6 23-7 20-13 25-8 12-10 13-9 10-15 15-14 11-21 14-4 1-9-10-9-11-9-10-8-10-28-34-11-14-11-13-9-11-11-13-3-4-1 14-2 91-1 10-4-2-14-15-7-8-22-24-12-14-14-15-1 163-14 8-16 7-21 6-14 2h-36l-20-4-18-6-16-8-13-9-11-9-8-8-13-17-12-23-6-18-4-19-1-10v-27l3-17 6-22 8-18 9-17 14-21 12-24 5 5 5 6 11 7 10 5-6 11-12 20-8 13-8 15-5 13-4 18-1 8v29l4 19 6 16 10 16 11 13 13 10 19 10 14 4 11 2h25l20-4 14-5 1-234 7 6 14 15 8 8 7 8 9 10 11 12 14 15 4 5 1-12 3-95z" fill="#FEFEFD"/>
<path transform="translate(656,226)" d="m0 0h2l-1 13-9 59-2 15-1 2-5-2-18-14h-3l-2 4-14 17-12 15-11 14-12 14-11 14-11 13-10 13-10 12-18 22-13 16-2 3 37-6 20-4 10-5 10-11 9-12 5-7-5-5-4-3 2-5 11-13 10-13 7-9 4 2 14 11 18 14 3 4-7 9-22 28-6-1-3-3h-2l-13 17-9 11-9 9-13 6-37 7-52 9-5 3-10 13-11 13-13 16-3 4 3 9 2 9v8l-2 9-6 11-7 7-14 7-5 1h-10l-11-3-11-7-8-10-4-10-1-12 2-10 5-10 5-6 11-7 11-3h12l2 1-11-76-4-28v-11l3-14 7-14 14-17 13-17 1-5-2-7v-11l4-10 7-8 9-5 4-1h14l9 4 8 6 6 10 1 4v13l-4 10-6 7-7 5-6 2-17 1-14 17-13 17-4 9-1 5v9l11 76 5-5 11-13 9-11 13-16 11-14 11-13 22-28 11-13 11-14 13-15 10-13 14-17 11-14 14-17 4-5v-3l-11-9-10-8v-2l25-11 30-12 24-10z" fill="#E7DF03"/>
<path transform="translate(621,298)" d="m0 0 9 6 11 9-1 2-11-7-5-4h-5l-13 17-13 16-10 11-13 17-8 10-7 9-11 13-9 11-11 14-10 13-11 12-1 6v2l-10 2 4-6 26-32 9-11 13-16 11-14 11-13 9-11 13-16 11-14 14-17 6-8z" fill="#010020"/>
<path transform="translate(446,356)" d="m0 0h13v2l-11 1-12 14-11 14-6 12-2 6v11l6 41 1 15 3 11 4-2 8-9 13-17 11-12v3l-28 34-9 12-2-2-11-76v-9l3-10 7-11 11-13 11-14z" fill="#010020"/>
<path transform="translate(494,481)" d="m0 0h3v2l-25 5-6 5-7 10-10 11-10 13-5 7-1 4 2 8v19l-4 12-7 10-9 6-12 4h-7l4-2 10-3 10-6 7-8 5-11 1-6v-8l-3-12-2-6 13-16 12-14 10-13 5-6 20-4z" fill="#010020"/>
<path transform="translate(643,394)" d="m0 0 1 4-8 11-7 8-10 13-3 3h-12l-12 13-9 11-8 8-10 6-5 2-28 4-11 1 2-2 37-7 14-7 10-10 13-17 7-9 4 2 3 2h4l7-9 11-14 8-10z" fill="#010020"/>
<path transform="translate(387,400)" d="m0 0h2v15l7 49 7 48v7h-14l-13 4-10 7-7 11-2 3 1-6 7-10 8-6 8-4 17-3 1-7-7-47-4-25-1-9z" fill="#010020"/>
<path transform="translate(575,263)" d="m0 0 9 6 12 10-1 4-14 17-11 14-2 1 2-5 9-12 9-10 2-3v-6l-11-10-4-4z" fill="#010020"/>
<path transform="translate(461,294)" d="m0 0 11 3 7 5 7 9 3 10v8l-3 9-5 8-4 4-3-1 5-4 5-9 1-4v-13l-4-10-5-6-8-5-7-3z" fill="#010020"/>
<path transform="translate(649,227)" d="m0 0 2 1-8 4-31 13-22 9-13 5v-2l23-10 26-11z" fill="#020021"/>
<path transform="translate(423,328)" d="m0 0 2 2 2 7-1 5-11 14-13 16-7 11-3 5-1-2 7-13 8-9 8-11 9-12z" fill="#01001F"/>
<path transform="translate(558,326)" d="m0 0v3l-10 12-8 10-11 13-8 10-2 1 2-5 7-9 9-11 9-10 8-10z" fill="#010020"/>
<path transform="translate(566,432)" d="m0 0 1 3-7 7-10 5-26 5-9 1-1-2 24-5 13-2 8-5z" fill="#010020"/>
<path transform="translate(655,250)" d="m0 0h1l-1 13-3 23-2 12-2 13h-2l2-20 6-39z" fill="#010021"/>
<path transform="translate(608,364)" d="m0 0 5 1 13 11 17 13 2 5-8-6-16-13-13-10z" fill="#010021"/>
<path transform="translate(360,576)" d="m0 0 10 10 9 6 14 4v1h-10l-9-4-6-4-7-7z" fill="#010020"/>
<path transform="translate(504,392)" d="m0 0v3l-13 16-8 10-5 6v-3l8-11 14-17z" fill="#01001F"/>
<path transform="translate(576,404)" d="m0 0 4 2 5 5-12 16-2-1 7-11 1-4-3-4z" fill="#010020"/>
<path transform="translate(463,443)" d="m0 0v3l-14 17-10 12v-3l13-17z" fill="#020022"/>
<path transform="translate(446,294)" d="m0 0 3 1-14 7-6 7-4 10-2 3 1-8 6-10 8-7z" fill="#010020"/>
<path transform="translate(591,379)" d="m0 0v3l-13 16-3 3 2-5 8-11z" fill="#010021"/>
<path transform="translate(408,362)" d="m0 0v3l-11 14-5 9-1-2 7-13z" fill="#020022"/>
</svg>
